# Blender v3.0.0 OBJ File: 'luk.blend'
# www.blender.org
mtllib luk.mtl
o Cylinder
v 0.000000 -1.000000 -1.000000
v 0.000000 1.000000 -1.000000
v 0.195090 -1.000000 -0.980785
v 0.195090 1.000000 -0.980785
v 0.382683 -1.000000 -0.923880
v 0.382683 1.000000 -0.923880
v 0.555570 -1.000000 -0.831470
v 0.555570 1.000000 -0.831470
v 0.707107 -1.000000 -0.707107
v 0.707107 1.000000 -0.707107
v 0.831470 -1.000000 -0.555570
v 0.831470 1.000000 -0.555570
v 0.923880 -1.000000 -0.382683
v 0.923880 1.000000 -0.382683
v 0.980785 -1.000000 -0.195090
v 0.980785 1.000000 -0.195090
v 1.000000 -1.000000 0.000000
v 1.000000 1.000000 0.000000
v -0.008820 -1.000000 -0.910434
v -0.008820 1.000000 -0.910434
v 0.177534 -1.000000 -0.892516
v 0.177534 1.000000 -0.892516
v 0.348243 -1.000000 -0.840732
v 0.348243 1.000000 -0.840732
v 0.505570 -1.000000 -0.756639
v 0.505570 1.000000 -0.756639
v 0.643469 -1.000000 -0.643469
v 0.643469 1.000000 -0.643469
v 0.756639 -1.000000 -0.505570
v 0.756639 1.000000 -0.505570
v 0.840732 -1.000000 -0.348243
v 0.840732 1.000000 -0.348243
v 0.892516 -1.000000 -0.177534
v 0.892516 1.000000 -0.177534
v 0.910434 -1.000000 0.008820
v 0.910434 1.000000 0.008820
vt 1.000000 0.500000
vt 1.000000 1.000000
vt 0.968750 1.000000
vt 0.968750 0.500000
vt 0.937500 1.000000
vt 0.937500 0.500000
vt 0.906250 1.000000
vt 0.906250 0.500000
vt 0.875000 1.000000
vt 0.875000 0.500000
vt 0.843750 1.000000
vt 0.843750 0.500000
vt 0.812500 1.000000
vt 0.812500 0.500000
vt 0.781250 1.000000
vt 0.781250 0.500000
vt 0.750000 1.000000
vt 0.750000 0.500000
vt 1.000000 0.500000
vt 0.968750 0.500000
vt 0.968750 1.000000
vt 1.000000 1.000000
vt 0.937500 0.500000
vt 0.937500 1.000000
vt 0.906250 0.500000
vt 0.906250 1.000000
vt 0.875000 0.500000
vt 0.875000 1.000000
vt 0.843750 0.500000
vt 0.843750 1.000000
vt 0.812500 0.500000
vt 0.812500 1.000000
vt 0.781250 0.500000
vt 0.781250 1.000000
vt 0.750000 0.500000
vt 0.750000 1.000000
vn 0.0980 0.0000 -0.9952
vn 0.2903 0.0000 -0.9569
vn 0.4714 0.0000 -0.8819
vn 0.6344 0.0000 -0.7730
vn 0.7730 0.0000 -0.6344
vn 0.8819 0.0000 -0.4714
vn 0.9569 0.0000 -0.2903
vn 0.9952 0.0000 -0.0980
vn -0.0957 0.0000 0.9954
vn -0.2903 0.0000 0.9569
vn -0.4714 0.0000 0.8819
vn -0.6344 0.0000 0.7730
vn -0.7730 0.0000 0.6344
vn -0.8819 0.0000 0.4714
vn -0.9569 0.0000 0.2903
vn -0.9954 0.0000 0.0957
vn 0.0000 -1.0000 0.0000
vn 0.0000 1.0000 0.0000
vn -0.9952 0.0000 -0.0980
vn 0.0980 0.0000 0.9952
usemtl None
s off
f 1/1/1 2/2/1 4/3/1 3/4/1
f 3/4/2 4/3/2 6/5/2 5/6/2
f 5/6/3 6/5/3 8/7/3 7/8/3
f 7/8/4 8/7/4 10/9/4 9/10/4
f 9/10/5 10/9/5 12/11/5 11/12/5
f 11/12/6 12/11/6 14/13/6 13/14/6
f 13/14/7 14/13/7 16/15/7 15/16/7
f 15/16/8 16/15/8 18/17/8 17/18/8
f 19/19/9 21/20/9 22/21/9 20/22/9
f 21/20/10 23/23/10 24/24/10 22/21/10
f 23/23/11 25/25/11 26/26/11 24/24/11
f 25/25/12 27/27/12 28/28/12 26/26/12
f 27/27/13 29/29/13 30/30/13 28/28/13
f 29/29/14 31/31/14 32/32/14 30/30/14
f 31/31/15 33/33/15 34/34/15 32/32/15
f 33/33/16 35/35/16 36/36/16 34/34/16
f 1/1/17 3/4/17 21/20/17 19/19/17
f 4/3/18 2/2/18 20/22/18 22/21/18
f 2/2/19 1/1/19 19/19/19 20/22/19
f 3/4/17 5/6/17 23/23/17 21/20/17
f 6/5/18 4/3/18 22/21/18 24/24/18
f 5/6/17 7/8/17 25/25/17 23/23/17
f 8/7/18 6/5/18 24/24/18 26/26/18
f 7/8/17 9/10/17 27/27/17 25/25/17
f 10/9/18 8/7/18 26/26/18 28/28/18
f 9/10/17 11/12/17 29/29/17 27/27/17
f 12/11/18 10/9/18 28/28/18 30/30/18
f 11/12/17 13/14/17 31/31/17 29/29/17
f 14/13/18 12/11/18 30/30/18 32/32/18
f 13/14/17 15/16/17 33/33/17 31/31/17
f 16/15/18 14/13/18 32/32/18 34/34/18
f 15/16/17 17/18/17 35/35/17 33/33/17
f 18/17/18 16/15/18 34/34/18 36/36/18
f 17/18/20 18/17/20 36/36/20 35/35/20
